<svg width="69" height="59" viewBox="0 0 69 59" fill="none" xmlns="http://www.w3.org/2000/svg">
<path d="M0 0H69V49C69 54.5228 64.5228 59 59 59H0V0Z" fill="#FDBB59"/>
<g clip-path="url(#clip0_168_82)">
<path d="M46.961 34.8061C46.9358 34.7451 46.8988 34.6897 46.8521 34.6431L40.8523 28.6433C40.6537 28.4515 40.3372 28.457 40.1453 28.6556C39.9581 28.8494 39.9581 29.1565 40.1453 29.3503L45.2921 34.4971H35.4995C29.1514 34.4899 24.0071 29.3456 23.9999 22.9976C23.9999 22.7214 23.7761 22.4976 23.4999 22.4976C23.2238 22.4976 23 22.7214 23 22.9976C23.0077 29.8977 28.5994 35.4894 35.4995 35.4971H45.2921L40.1463 40.6429C39.9477 40.8347 39.9423 41.1513 40.1341 41.3499C40.326 41.5485 40.6425 41.5539 40.8411 41.3621C40.8453 41.3581 40.8493 41.354 40.8533 41.3499L46.8531 35.3501C46.9963 35.2072 47.0394 34.9921 46.9621 34.8051L46.961 34.8061Z" fill="#2196F3"/>
<path d="M40.4994 41.4968C40.2233 41.4973 39.9991 41.2738 39.9985 40.9977C39.9983 40.8646 40.0512 40.7368 40.1454 40.6428L45.7922 34.997L40.1454 29.3513C39.9536 29.1527 39.9591 28.8361 40.1577 28.6443C40.3515 28.4571 40.6587 28.4571 40.8524 28.6443L46.8522 34.644C47.0474 34.8393 47.0474 35.1558 46.8522 35.351L40.8524 41.3508C40.7587 41.4443 40.6318 41.4968 40.4994 41.4968Z" fill="#343434"/>
<path d="M46.4991 35.4971H35.4995C28.5994 35.4893 23.0077 29.8977 23 22.9976C23 22.7214 23.2239 22.4976 23.5 22.4976C23.7761 22.4976 24 22.7214 24 22.9976C24.0072 29.3456 29.1515 34.49 35.4995 34.4971H46.4991C46.7752 34.4971 46.9991 34.721 46.9991 34.9971C46.9991 35.2732 46.7752 35.4971 46.4991 35.4971Z" fill="#343434"/>
</g>
<defs>
<clipPath id="clip0_168_82">
<rect width="24" height="24" fill="white" transform="translate(23 20)"/>
</clipPath>
</defs>
</svg>
