<svg width="69" height="59" viewBox="0 0 69 59" fill="none" xmlns="http://www.w3.org/2000/svg">
<path d="M0 5C0 2.23858 2.23858 0 5 0H69V59H0V5Z" fill="white"/>
<g clip-path="url(#clip0_168_83)">
<path d="M23.039 34.8061C23.0642 34.7451 23.1012 34.6897 23.1479 34.6431L29.1477 28.6433C29.3463 28.4515 29.6628 28.457 29.8547 28.6556C30.0419 28.8494 30.0419 29.1565 29.8547 29.3503L24.7079 34.4971H34.5005C40.8486 34.4899 45.9929 29.3456 46.0001 22.9976C46.0001 22.7214 46.2239 22.4976 46.5001 22.4976C46.7762 22.4976 47 22.7214 47 22.9976C46.9923 29.8977 41.4006 35.4893 34.5005 35.4971H24.7079L29.8537 40.6429C30.0523 40.8347 30.0577 41.1513 29.8659 41.3499C29.674 41.5485 29.3575 41.5539 29.1589 41.3621C29.1547 41.3581 29.1507 41.354 29.1467 41.3499L23.1469 35.3501C23.0037 35.2072 22.9606 34.9921 23.0379 34.8051L23.039 34.8061Z" fill="#2196F3"/>
<path d="M29.5006 41.4968C29.7767 41.4973 30.0009 41.2738 30.0015 40.9977C30.0017 40.8646 29.9488 40.7368 29.8546 40.6428L24.2078 34.997L29.8546 29.3513C30.0464 29.1527 30.0409 28.8361 29.8423 28.6443C29.6485 28.4571 29.3413 28.4571 29.1476 28.6443L23.1478 34.644C22.9526 34.8393 22.9526 35.1558 23.1478 35.351L29.1476 41.3508C29.2413 41.4443 29.3682 41.4968 29.5006 41.4968Z" fill="#343434"/>
<path d="M23.5009 35.4971H34.5005C41.4006 35.4893 46.9923 29.8977 47 22.9976C47 22.7214 46.7761 22.4976 46.5 22.4976C46.2239 22.4976 46 22.7214 46 22.9976C45.9928 29.3456 40.8485 34.49 34.5005 34.4971H23.5009C23.2248 34.4971 23.0009 34.721 23.0009 34.9971C23.0009 35.2732 23.2248 35.4971 23.5009 35.4971Z" fill="#343434"/>
</g>
<defs>
<clipPath id="clip0_168_83">
<rect width="24" height="24" fill="white" transform="matrix(-1 0 0 1 47 20)"/>
</clipPath>
</defs>
</svg>
